<?xml version="1.0" encoding="iso-8859-1"?>
<!-- Generator: Adobe Illustrator 18.0.0, SVG Export Plug-In . SVG Version: 6.00 Build 0)  -->
<!DOCTYPE svg PUBLIC "-//W3C//DTD SVG 1.1//EN" "http://www.w3.org/Graphics/SVG/1.1/DTD/svg11.dtd">
<svg version="1.1" id="Capa_1" xmlns="http://www.w3.org/2000/svg" xmlns:xlink="http://www.w3.org/1999/xlink" x="0px" y="0px"
	 viewBox="0 0 395.195 395.195" style="enable-background:new 0 0 395.195 395.195;" xml:space="preserve">
<path d="M327.075,129.475C327.075,58.088,268.987,0,197.601,0C126.206,0,68.12,58.088,68.12,129.475
	c0,63.734,46.263,116.824,106.965,127.51v53.787h-35.758v45.025h35.758v39.398h45.028v-39.398h35.748v-45.025h-35.748v-53.787
	C280.807,246.299,327.075,193.209,327.075,129.475z M113.153,129.475c0-46.566,37.881-84.428,84.447-84.428
	c46.566,0,84.437,37.861,84.437,84.428c0,46.568-37.872,84.43-84.437,84.43C151.034,213.904,113.153,176.043,113.153,129.475z"/>
<g>
</g>
<g>
</g>
<g>
</g>
<g>
</g>
<g>
</g>
<g>
</g>
<g>
</g>
<g>
</g>
<g>
</g>
<g>
</g>
<g>
</g>
<g>
</g>
<g>
</g>
<g>
</g>
<g>
</g>
</svg>
